<svg xmlns="http://www.w3.org/2000/svg" viewBox="0 0 64 64" fill="none">
  <rect width="64" height="64" rx="16" fill="#E9D7A5"/>
  <path
    d="M32 12c1.8-2.6 4.2-4 6.9-4 3.5 0 6.1 2.4 6.1 5.7 0 2.4-1.3 4.4-3.8 6.1L32 26l-9.2-6.2c-2.5-1.7-3.8-3.7-3.8-6.1C19 10.4 21.6 8 25.1 8c2.7 0 5.1 1.4 6.9 4Z"
    fill="#1F160C"
  />
  <path
    d="M17 24c0 1.7 1.3 3 3 3h4.4l-6.1 14.5A2 2 0 0 0 20.2 44h9.6a2 2 0 0 0 1.8-2.9L25.6 27H32v18.5l-1.8 2.2c-1.7 2-0.3 5.1 2.3 5.1h8.9c2.6 0 4-3.1 2.3-5.1L42 45.5V27h6.4l-6 14.5a2 2 0 0 0 1.8 2.8h9.6a2 2 0 0 0 1.8-2.8L49.5 27H54c1.7 0 3-1.3 3-3s-1.3-3-3-3H42.2c-4.6 0-7.7 1.1-10.2 4-2.5-2.9-5.6-4-10.2-4H20c-1.7 0-3 1.3-3 3Z"
    fill="#1F160C"
  />
</svg>
